<svg xmlns="http://www.w3.org/2000/svg" viewBox="0 0 87.72 103.04"><defs><style>.cls-1{fill:#fff;}</style></defs><g id="Layer_2" data-name="Layer 2"><g id="Layer_1-2" data-name="Layer 1"><path class="cls-1" d="M87.72,19.46Q86.24,23.11,83.8,30A153,153,0,0,0,79,48h-3A34.73,34.73,0,0,0,76.72,44c.14-1.4.22-2.71.22-3.92a20.9,20.9,0,0,0-2.14-9.45,16.19,16.19,0,0,0-6.72-6.86Q63.49,21.14,56,21.14q-8.86,0-14.77,4.34T35.29,38.92A18.82,18.82,0,0,0,38,48.79,44,44,0,0,0,45,57.47q4.2,4.13,9,8.26t9,8.47a44.76,44.76,0,0,1,6.94,9.17,21.39,21.39,0,0,1,2.73,10.71,22.25,22.25,0,0,1-3.39,12.46A27.31,27.31,0,0,1,60.4,115a43.15,43.15,0,0,1-12,4.9,54.94,54.94,0,0,1-13.07,1.61,39.5,39.5,0,0,1-9.89-1,27.05,27.05,0,0,1-6.65-2.59q-2.66-1.55-4.43-2.8a9.5,9.5,0,0,0-3-1.68A8.29,8.29,0,0,0,9,113a3.72,3.72,0,0,0-3.18,1.89A37.07,37.07,0,0,0,3,120.54H0c.88-2.05,1.82-4.43,2.8-7.14S4.87,107.22,6.05,103s2.51-9.59,4-16h3c-.39,2-.74,3.85-1,5.67a27.15,27.15,0,0,0-.3,5.67q.45,9.52,6.21,15t17.87,5.46q9.59,0,15.65-4.2t6-13.3A22.21,22.21,0,0,0,55,90.72a37.23,37.23,0,0,0-6.35-8.61q-3.91-4-8.27-7.77t-8.27-7.91a35.93,35.93,0,0,1-6.35-9.17,26,26,0,0,1-2.44-11.48A24.2,24.2,0,0,1,26.14,34a26.05,26.05,0,0,1,7.45-8.54A34.24,34.24,0,0,1,44,20.23a40.21,40.21,0,0,1,11.81-1.75,35.57,35.57,0,0,1,10.63,1.4A28.91,28.91,0,0,1,75,24.36a28.19,28.19,0,0,0,3,1.89,4.41,4.41,0,0,0,1.92.63q2.07,0,4.87-7.42Z" transform="translate(0 -18.48)"/></g></g></svg>