<svg xmlns="http://www.w3.org/2000/svg" viewBox="0 0 799.7 38.55"><defs><style>.cls-1{fill:#fff;}</style></defs><g id="Layer_2" data-name="Layer 2"><g id="Layer_1-2" data-name="Layer 1"><path class="cls-1" d="M0,2.32H6.88c9,0,13.36,5.56,13.36,14.48S15.84,31.47,6.92,31.47H0ZM6.64,29.43c7.68,0,11.08-5.07,11.08-12.63S14.32,4.32,6.64,4.32H2.4V29.43Z"/><path class="cls-1" d="M26.88,2.32H43v2H29.28V15H40.84v2H29.28V29.4H43.44v2.07H26.88Z"/><path class="cls-1" d="M47.6,27.64,49.08,26a11.22,11.22,0,0,0,8.44,3.87c4.32,0,7-2.27,7-5.59,0-3.52-2.28-4.64-5.16-5.92L55,16.4c-2.6-1.16-5.92-3-5.92-7.28S52.76,1.8,57.72,1.8A11.14,11.14,0,0,1,66,5.32L64.6,6.88A9.36,9.36,0,0,0,57.72,4c-3.72,0-6.2,2-6.2,5,0,3.32,2.84,4.56,5,5.48l4.36,1.92C64.16,17.8,67,19.64,67,24.08S63.24,32,57.52,32A13,13,0,0,1,47.6,27.64Z"/><path class="cls-1" d="M73,2.32h2.4V31.47H73Z"/><path class="cls-1" d="M82,16.88C82,7.56,87.36,1.8,95,1.8a10.74,10.74,0,0,1,8.08,3.52l-1.4,1.56A8.53,8.53,0,0,0,95.08,4c-6.48,0-10.52,5-10.52,12.84s3.8,13,10.36,13a9,9,0,0,0,6.2-2.07V19H94.36V17h9.08V28.68A11.86,11.86,0,0,1,94.68,32C87.2,32,82,26.2,82,16.88Z"/><path class="cls-1" d="M110.8,2.32h2.48l11.92,20,3.24,5.88h.19c-.15-2.88-.32-5.8-.32-8.64V2.32h2.28V31.47h-2.48L116.24,11.4,113,5.56h-.2c.12,2.8.32,5.52.32,8.44V31.47H110.8Z"/><path class="cls-1" d="M139.08,2.32h16.11v2H141.48V15H153v2H141.48V29.4h14.15v2.07H139.08Z"/><path class="cls-1" d="M162,2.32h8.52c5.79,0,9.71,2.12,9.71,7.8,0,4.64-2.84,7.32-7.27,8l7.87,13.35h-2.72l-7.75-13.15h-6V31.47H162Zm8,14c5,0,7.83-2,7.83-6.2S175,4.32,170,4.32H164.4v12Z"/><path class="cls-1" d="M213.39,0h1.92L202.12,38.55h-1.88Z"/><path class="cls-1" d="M237.59,2.32h7.56c6.6,0,10.64,2.16,10.64,8.2,0,5.84-4,8.64-10.48,8.64H240V31.47h-2.4Zm7.24,14.84c5.76,0,8.52-2,8.52-6.64s-2.88-6.2-8.68-6.2H240V17.16Z"/><path class="cls-1" d="M262,20.08V2.32h2.4V20c0,7.6,3.52,9.87,7.56,9.87s7.72-2.27,7.72-9.87V2.32h2.28V20.08c0,9.2-4.76,11.91-10,11.91S262,29.28,262,20.08Z"/><path class="cls-1" d="M290.27,2.32h8c5.88,0,9.72,2.16,9.72,7.08a6.28,6.28,0,0,1-4.44,6.36V16c3.72.64,6.2,3,6.2,7,0,5.64-4.32,8.51-10.88,8.51h-8.64ZM297.55,15c5.76,0,8.08-2,8.08-5.36,0-4-2.68-5.4-7.84-5.4h-5.12V15Zm.8,14.43c5.64,0,9.08-2,9.08-6.51,0-4.08-3.28-6-9.08-6h-5.68V29.47Z"/><path class="cls-1" d="M316,2.32h2.4V29.4h13.28v2.07H316Z"/><path class="cls-1" d="M336.83,2.32h2.4V31.47h-2.4Z"/><path class="cls-1" d="M345.51,27.64,347,26a11.22,11.22,0,0,0,8.44,3.87c4.32,0,7-2.27,7-5.59,0-3.52-2.28-4.64-5.16-5.92l-4.36-1.92c-2.6-1.16-5.92-3-5.92-7.28s3.68-7.32,8.64-7.32a11.14,11.14,0,0,1,8.24,3.52l-1.36,1.56A9.36,9.36,0,0,0,355.63,4c-3.72,0-6.2,2-6.2,5,0,3.32,2.84,4.56,5,5.48l4.36,1.92c3.32,1.48,6.12,3.32,6.12,7.76S361.15,32,355.43,32A13,13,0,0,1,345.51,27.64Z"/><path class="cls-1" d="M370.91,2.32h2.4V15h15.16V2.32h2.4V31.47h-2.4V17H373.31V31.47h-2.4Z"/><path class="cls-1" d="M399.31,2.32h16.12v2H401.71V15h11.56v2H401.71V29.4h14.16v2.07H399.31Z"/><path class="cls-1" d="M422.23,2.32h8.52c5.8,0,9.72,2.12,9.72,7.8,0,4.64-2.84,7.32-7.28,8l7.88,13.35h-2.72l-7.76-13.15h-6V31.47h-2.4Zm8,14c5,0,7.84-2,7.84-6.2s-2.8-5.8-7.84-5.8h-5.56v12Z"/><path class="cls-1" d="M461.63,27.76l4.08-4.92a11.83,11.83,0,0,0,7.2,3c2.64,0,3.88-1,3.88-2.6s-1.64-2.28-4.2-3.36l-3.8-1.6c-3.12-1.24-6-3.84-6-8.16,0-5,4.48-9,10.8-9a13.85,13.85,0,0,1,9.68,3.92l-3.56,4.48a9.68,9.68,0,0,0-6.12-2.28c-2.2,0-3.52.88-3.52,2.44s1.84,2.32,4.48,3.36l3.72,1.48c3.68,1.48,5.88,4,5.88,8.16,0,5-4.16,9.31-11.36,9.31A16.69,16.69,0,0,1,461.63,27.76Z"/><path class="cls-1" d="M489.07,1.68h7.16V13H506V1.68h7.12V31.47H506V19.24h-9.8V31.47h-7.16Z"/><path class="cls-1" d="M520,1.68h7.16V31.47H520Z"/><path class="cls-1" d="M534,1.68h7.28L548.71,16l2.92,6.6h.2a103.31,103.31,0,0,1-1-11V1.68h6.8V31.47h-7.28L543,17.12l-2.92-6.52h-.2c.32,3.32.92,7.4.92,11v9.87H534Z"/><path class="cls-1" d="M573.75,1.68h7.72l4.72,12.88c.6,1.72,1.08,3.6,1.64,5.4h.2c.6-1.8,1.08-3.68,1.64-5.4l4.55-12.88H602V31.47h-6.52V21.28a91.41,91.41,0,0,1,1-10.32h-.2l-2.47,7.12-4,10.88h-3.92l-4-10.88L579.39,11h-.16a98.88,98.88,0,0,1,.92,10.32V31.47h-6.4Z"/><path class="cls-1" d="M608.83,1.68H616V31.47h-7.16Z"/><path class="cls-1" d="M622.83,1.68h7.28L637.51,16l2.92,6.6h.19a106.07,106.07,0,0,1-1-11V1.68h6.79V31.47h-7.27l-7.36-14.35-2.92-6.52h-.2c.32,3.32.92,7.4.92,11v9.87h-6.8Z"/><path class="cls-1" d="M662.55,1.68h7.16V13h9.79V1.68h7.12V31.47H679.5V19.24h-9.79V31.47h-7.16Z"/><path class="cls-1" d="M698.67,21l-9-19.28h7.6l2.48,6.64c.8,2.24,1.56,4.32,2.4,6.64h.16c.84-2.32,1.63-4.4,2.47-6.64l2.48-6.64h7.48l-9,19.28V31.47h-7.12Z"/><path class="cls-1" d="M717.83,1.68H736.7v6H725v5.52h10v6H725v6.32h12.16v6H717.83Z"/><path class="cls-1" d="M741.67,16.44c0-9.76,5.52-15.28,13.63-15.28s13.64,5.56,13.64,15.28S763.42,32,755.3,32,741.67,26.2,741.67,16.44Zm20,0c0-5.76-2.44-9.16-6.36-9.16S749,10.68,749,16.44s2.4,9.44,6.32,9.44S761.66,22.2,761.66,16.44Z"/><path class="cls-1" d="M774.47,1.68h7.15v11.8h.12l8.44-11.8H798l-9,12L799.7,31.47h-7.8l-7-12.19-3.24,4.4v7.79h-7.15Z"/></g></g></svg>