<svg xmlns="http://www.w3.org/2000/svg" viewBox="0 0 1412.05 417.28"><defs><style>.cls-1{fill:#fff;}</style></defs><g id="Layer_2" data-name="Layer 2"><g id="Layer_1-2" data-name="Layer 1"><path class="cls-1" d="M122.2,12.22q28.61,0,41.6,9.23t13,24.83a39,39,0,0,1-8.45,24.44q-8.44,10.92-23,18.33a109,109,0,0,1-33,10.27q27.56,2.09,40.43,13.52t12.87,27.3q0,14-6.63,24.44A55.72,55.72,0,0,1,141.05,182a87.16,87.16,0,0,1-26.39,10.53,140.69,140.69,0,0,1-32,3.51q-8.84,0-19.37-.39t-25.87-.39q-6.49,0-13.52.13l-13.26.26Q4.42,195.79,0,196l1-5.2a59,59,0,0,0,13.78-2.08,13.84,13.84,0,0,0,7.8-6.24q2.86-4.68,5.2-14l34.32-129a76.45,76.45,0,0,0,2.08-12.61,7.62,7.62,0,0,0-3.51-7.28q-3.76-2.47-13.91-2.47L48.1,12q4.42.25,10.53.39l13.13.26q7,.13,13,.13,11.17,0,19.89-.26T122.2,12.22ZM73.58,102.7l1-4.42H93.86q14.82,0,25.35-7.67a49.37,49.37,0,0,0,16.12-20.15,63.46,63.46,0,0,0,5.59-26.26q0-13-5.07-20t-17.55-7q-9.1,0-13,3.51T98.54,35.62L63.44,168.48a75.25,75.25,0,0,0-1.95,11.44c-.26,3.29.56,5.81,2.47,7.54s5.46,2.6,10.66,2.6q18.47,0,30.16-7a43.36,43.36,0,0,0,17.42-19.37,65.8,65.8,0,0,0,5.72-27.95,42,42,0,0,0-3.25-17A25.4,25.4,0,0,0,114.4,107q-7-4.29-18.72-4.29Z"/><path class="cls-1" d="M199.94,157q-8.58,12.22-9.49,19.5t4.68,10.53q5.58,3.26,16,3.77l-1,5.2q-9.89-.53-17.81-.65t-15-.13q-6,0-10.14.13c-2.77.09-5.55.3-8.32.65l1.3-5.2a27.17,27.17,0,0,0,8.32-3.77,48.6,48.6,0,0,0,9-8.06,154.55,154.55,0,0,0,11.05-14.17L298.22,10.66a46.89,46.89,0,0,0,5.07.26,46.89,46.89,0,0,0,5.07-.26l10.4,163.54q.78,9.36,4.81,12.87c2.68,2.34,5.33,3.6,7.93,3.77l-1,5.2q-6.24-.53-16-.65t-18.59-.13q-10.92,0-20.8.13t-15.6.65l1-5.2q12.48-.51,17.68-4.55T282.88,169L276.12,46.28,282.88,40Zm23.14-35.88H299l-2.08,5.2H218.4Z"/><path class="cls-1" d="M494,141.44q-1.56,4.16-3.12,9.62t-3.38,11.7q-1.31,4.94-3.38,14.17T480.74,196q-13.26-.53-29.77-.65t-29.51-.13h-16q-9.75,0-21.06.13l-22.88.26q-11.58.14-21.71.39l1-5.2a59.17,59.17,0,0,0,13.78-2.08,13.84,13.84,0,0,0,7.8-6.24q2.85-4.68,5.2-14l34.58-129q2.59-9.62,2.21-14.17A6.92,6.92,0,0,0,400,19.11q-4-1.7-12.87-1.95l1.3-5.2q6.24.25,16.9.52t22.62.26q10.65,0,20.67-.26T465.92,12l-1.3,5.2q-8.85.25-13.78,1.95a14,14,0,0,0-7.67,6.24q-2.73,4.54-5.33,14.17l-34.58,129q-2.61,9.36-2.21,14a6.45,6.45,0,0,0,4.55,6.11q4.15,1.43,12.74,1.43H431.6q13.51,0,23.53-4.68T473.2,170q8.06-10.66,14.82-28.6Z"/><path class="cls-1" d="M523.11,157q-8.58,12.22-9.49,19.5t4.68,10.53q5.6,3.26,16,3.77l-1,5.2q-9.88-.53-17.81-.65t-15-.13q-6,0-10.14.13c-2.77.09-5.54.3-8.32.65l1.3-5.2a27.07,27.07,0,0,0,8.32-3.77,48,48,0,0,0,9-8.06,154.55,154.55,0,0,0,11.05-14.17L621.39,10.66a46.89,46.89,0,0,0,5.07.26,46.89,46.89,0,0,0,5.07-.26l10.4,163.54q.78,9.36,4.81,12.87t7.93,3.77l-1,5.2q-6.24-.53-16-.65t-18.59-.13q-10.92,0-20.8.13t-15.6.65l1-5.2q12.48-.51,17.68-4.55T606.05,169L599.29,46.28,606.05,40Zm23.14-35.88h75.92l-2.08,5.2H541.57Z"/><path class="cls-1" d="M676.51,210.34a22.73,22.73,0,0,0,12.61-4,37.7,37.7,0,0,0,9.49-10q7.54-12,15.21-37.44t15.6-61.62q7.94-36.13,16-79.3l4.42,5.46q-4.16,21.32-8.71,43.29t-9.23,42.9q-4.68,20.93-9.62,38.87t-9.88,31.07q-4.93,13.14-9.62,19.37a61.83,61.83,0,0,1-11,11.31q-6.37,5.07-16.77,5.07-11.18,0-16.38-5.59a19.34,19.34,0,0,1-5.2-13.65,23,23,0,0,1,5.72-15.47,19,19,0,0,1,15.08-6.63q7.8,0,11.44,4.16a14.51,14.51,0,0,1,3.64,9.88,20.34,20.34,0,0,1-4.55,13,26.55,26.55,0,0,1-11.05,8.32,3.21,3.21,0,0,0,1.3.78A5,5,0,0,0,676.51,210.34Zm131.3-13L743.59,43.94c-.52-.87-1-1.6-1.3-2.21a17.89,17.89,0,0,1-1-2.21q2.09-9.62,1.43-14.17a7.44,7.44,0,0,0-5.2-6.24q-4.54-1.7-14.69-1.95l1.3-5.2c2.77.17,6.2.35,10.27.52s8.36.26,12.87.26q12.22,0,21.06-.78l53,133.12q-1,7.54-2,13.39t-2,12.74q-1,6.89-1.95,12.74t-2,13.39ZM887.37,4.94A22.32,22.32,0,0,0,875,9a35.49,35.49,0,0,0-9.23,9.75q-12,17.69-24.44,62.14T813.53,197.34l-3.64-7.28q3.9-17.42,8.32-37.57t9.49-40.43q5.07-20.28,10.4-38.74t11.18-33.15q5.85-14.69,11.83-23.53a48.89,48.89,0,0,1,11.7-11.83A27.51,27.51,0,0,1,889.19,0q10.92,0,16.12,5.59A19,19,0,0,1,910.51,19a23.31,23.31,0,0,1-5.72,15.73,18.94,18.94,0,0,1-15.08,6.63q-7.55,0-11.31-4.16a14.23,14.23,0,0,1-3.77-9.88,20.34,20.34,0,0,1,4.55-13A26.22,26.22,0,0,1,890.49,6a7.67,7.67,0,0,0-1.43-.78A4.69,4.69,0,0,0,887.37,4.94Z"/><path class="cls-1" d="M1071.19,12q-3.9,10.14-8.06,24.57t-8.58,35.23h-5.72a109.59,109.59,0,0,0,2-23q-.39-9.75-4-16.51a31.71,31.71,0,0,0-13.39-13.78A39.44,39.44,0,0,0,1014.77,14a49.34,49.34,0,0,0-25.35,7.28,85.81,85.81,0,0,0-22.75,20,147.53,147.53,0,0,0-18.33,29.12A171.83,171.83,0,0,0,936,105.17a155.21,155.21,0,0,0-4.42,36.53q0,26,9.75,38.61t26.39,12.61q9.88,0,21.32-4.68a55.86,55.86,0,0,0,19.76-13.52,75.8,75.8,0,0,0,12.09-16.64,268.1,268.1,0,0,0,11.31-24.44h5.72q-6.5,23.67-10,38.09T1022.57,196h-5.72a65.3,65.3,0,0,0,.78-8.84q0-5.72-2.08-6.5c-1.39-.52-3.55.18-6.5,2.08a116.6,116.6,0,0,1-14.3,8.45,85.84,85.84,0,0,1-16.25,6.11,75.75,75.75,0,0,1-19.63,2.34q-33,0-49.92-16.38t-16.9-46.8a118.36,118.36,0,0,1,5.85-36.4,143.76,143.76,0,0,1,16.64-34.71A138.43,138.43,0,0,1,940.28,36a119.11,119.11,0,0,1,33.28-20.28A104.1,104.1,0,0,1,1013,8.32q10.92,0,17.94,2.47a43.33,43.33,0,0,1,12,6.24,51.57,51.57,0,0,1,8.58,8.19q3.64,3.9,7,.91T1065.73,12Z"/><path class="cls-1" d="M1211.07,58.76q1.82-15.34,0-24.31T1203,21.71q-6.24-3.77-18.72-3.77h-11.7q-8.83,0-13.65,1.43a12.85,12.85,0,0,0-7.54,6q-2.73,4.54-5.33,14.17l-34.58,129q-2.34,9.36-2.08,14a6.24,6.24,0,0,0,4.42,6.11q4.15,1.43,13,1.43h12.74q14.82,0,24.44-4.42t16.9-14.43q7.27-10,14.3-27.17h5.72c-.87,2.25-1.78,5-2.73,8.32s-1.86,6.76-2.73,10.4q-1.31,4.94-3.38,14.17T1188.45,196q-13.26-.53-29.77-.65t-29.51-.13h-15.86q-9.61,0-20.93.13l-22.75.26q-11.45.14-21.58.39l1-5.2a59,59,0,0,0,13.78-2.08,13.84,13.84,0,0,0,7.8-6.24q2.86-4.68,5.2-14l34.58-129q2.6-9.62,2.21-14.17a6.9,6.9,0,0,0-4.42-6.24q-4-1.7-12.87-1.95l1.3-5.2q10.14.25,21.58.39l22.75.26q11.31.13,20.93.13h15.86q11.7,0,26.26-.13t26.52-.65q-3.37,9.11-5.85,16.77t-4,13.91c-.87,3.12-1.6,6.11-2.21,9s-1.08,5.24-1.43,7.15Zm-96.2,47.32,1.3-5.2h49.14l-1.3,5.2Zm27-5.2a27.48,27.48,0,0,0,13.13-3,31.44,31.44,0,0,0,9.62-7.93,64.75,64.75,0,0,0,7-10.53,108.46,108.46,0,0,0,5.07-10.79h5.72q-4.15,13-6,20.28t-3.9,14.56q-1,4.68-2.21,9.1T1168,123q-1.17,6-3,15.34h-6c.35-3.64.52-7.36.52-11.18a30.38,30.38,0,0,0-1.69-10.4,15.7,15.7,0,0,0-6-7.67q-4.29-3-12.35-3Z"/><path class="cls-1" d="M1412.05,72.54a122.89,122.89,0,0,1-5.33,35.62A128.83,128.83,0,0,1,1391,141.7,119.44,119.44,0,0,1,1330,189q-19.89,7-44.59,7c-2.6,0-6-.08-10.14-.26s-8.63-.3-13.39-.39-9.67-.13-14.69-.13q-6,0-13,.13l-13.13.26c-4.07.09-7.5.22-10.27.39l.78-5.2a55,55,0,0,0,13.13-2.08,13.87,13.87,0,0,0,7.67-6.24q2.85-4.68,5.2-14l34.06-129a47.09,47.09,0,0,0,1.95-12.61,8.13,8.13,0,0,0-3.9-7.15q-3.78-2.34-13.13-2.6l.78-5.2c2.94.17,6.58.35,10.92.52s9,.26,13.91.26h14.17q4.94-.26,12.22-.39l14.56-.26q7.27-.13,12.22-.13,37.44,0,57.07,15.34T1412.05,72.54ZM1284.39,191.36a73,73,0,0,0,32.37-7,81.38,81.38,0,0,0,25.48-19.5,115.86,115.86,0,0,0,18.46-28.6,159,159,0,0,0,11.18-34.45A182.39,182.39,0,0,0,1375.65,65q0-23.93-10.92-36.14t-35.62-12.22q-7,0-10.92,1.69a12.72,12.72,0,0,0-6.24,6.5A76.67,76.67,0,0,0,1307.27,39l-34.06,130a68.77,68.77,0,0,0-2.73,13c-.26,3.29.65,5.68,2.73,7.15S1279,191.36,1284.39,191.36Z"/><path class="cls-1" d="M202.28,274.54A122.89,122.89,0,0,1,197,310.16a128.51,128.51,0,0,1-15.73,33.54,119.44,119.44,0,0,1-61,47.32q-19.89,7-44.59,7c-2.6,0-6-.08-10.14-.26s-8.62-.3-13.39-.39-9.66-.13-14.69-.13q-6,0-13,.13l-13.13.26q-6.1.14-10.27.39l.78-5.2A55,55,0,0,0,15,390.76a13.84,13.84,0,0,0,7.67-6.24q2.86-4.68,5.2-14l34.06-129a46.29,46.29,0,0,0,1.95-12.61,8.14,8.14,0,0,0-3.9-7.15q-3.76-2.34-13.13-2.6l.78-5.2c3,.17,6.59.35,10.92.52s9,.26,13.91.26H86.58q4.94-.26,12.22-.39l14.56-.26q7.27-.14,12.22-.13,37.44,0,57.07,15.34T202.28,274.54ZM74.62,393.36a73,73,0,0,0,32.37-7,81.38,81.38,0,0,0,25.48-19.5,115.57,115.57,0,0,0,18.46-28.6,158.45,158.45,0,0,0,11.18-34.45A182.39,182.39,0,0,0,165.88,267q0-23.92-10.92-36.14t-35.62-12.22q-7,0-10.92,1.69a12.72,12.72,0,0,0-6.24,6.5A76.67,76.67,0,0,0,97.5,241L63.44,371a68.77,68.77,0,0,0-2.73,13c-.26,3.29.65,5.68,2.73,7.15S69.25,393.36,74.62,393.36Z"/><path class="cls-1" d="M359.32,260.76q1.81-15.33,0-24.31t-8.06-12.74q-6.24-3.77-18.72-3.77h-11.7c-5.89,0-10.45.48-13.65,1.43a12.88,12.88,0,0,0-7.54,6q-2.73,4.54-5.33,14.17l-34.58,129q-2.34,9.36-2.08,14t4.42,6.11q4.16,1.42,13,1.43h12.74q14.82,0,24.44-4.42t16.9-14.43q7.27-10,14.3-27.17h5.72c-.87,2.25-1.78,5-2.73,8.32s-1.86,6.76-2.73,10.4q-1.31,4.94-3.38,14.17T336.7,398q-13.26-.53-29.77-.65t-29.51-.13H261.56q-9.63,0-20.93.13l-22.75.26q-11.44.14-21.58.39l1-5.2a59.08,59.08,0,0,0,13.78-2.08,13.84,13.84,0,0,0,7.8-6.24q2.87-4.68,5.2-14l34.58-129q2.6-9.61,2.21-14.17a6.92,6.92,0,0,0-4.42-6.24q-4-1.7-12.87-2l1.3-5.2q10.14.25,21.58.39l22.75.26q11.31.13,20.93.13H326q11.7,0,26.26-.13t26.52-.65q-3.39,9.1-5.85,16.77t-4,13.91c-.87,3.12-1.6,6.11-2.21,9s-1.09,5.24-1.43,7.15Zm-96.2,47.32,1.3-5.2h49.14l-1.3,5.2Zm27-5.2a27.48,27.48,0,0,0,13.13-3,31.44,31.44,0,0,0,9.62-7.93,64.75,64.75,0,0,0,7-10.53A108.46,108.46,0,0,0,325,270.64h5.72q-4.16,13-6,20.28t-3.9,14.56c-.7,3.12-1.43,6.15-2.21,9.1s-1.56,6.42-2.34,10.4-1.78,9.1-3,15.34h-6c.34-3.64.52-7.36.52-11.18a30.38,30.38,0,0,0-1.69-10.4,15.7,15.7,0,0,0-6-7.67q-4.29-3-12.35-3Z"/><path class="cls-1" d="M525.46,212.14q-2.61,6.77-6.89,19.63a292.24,292.24,0,0,0-8.45,33.41h-5.2a68.62,68.62,0,0,0,1.17-7.54q.39-3.9.39-7a37.82,37.82,0,0,0-4-17.81,29.66,29.66,0,0,0-12.22-12.22Q482,216,469.3,216q-13.79,0-23.4,7.15t-9.62,22.75A37.47,37.47,0,0,0,440.83,264a84,84,0,0,0,11.7,16.38q7.14,7.94,15.21,15.86t15.08,16.25a87,87,0,0,1,11.57,17.55,45,45,0,0,1,4.55,20.15q0,13.79-6.63,23.53a52.39,52.39,0,0,1-17,15.86,83.66,83.66,0,0,1-22.49,9.1,98.06,98.06,0,0,1-23.53,3A92,92,0,0,1,409.89,400,48.19,48.19,0,0,1,397,395.44q-5.2-2.85-10.14-5.72a18.64,18.64,0,0,0-5.07-3,12.22,12.22,0,0,0-4-.91,6.55,6.55,0,0,0-5.59,3.25,64.34,64.34,0,0,0-5.33,10.79h-5.2q2.34-5.72,4.94-13.26t5.72-19.37q3.12-11.84,7-29.77h5.2q-1.05,4.94-1.82,10.27a53.46,53.46,0,0,0-.52,10.53q.78,18.19,11.31,28.08t31.07,9.88q17.42,0,26.26-7.41t8.84-21.71a48.1,48.1,0,0,0-4-19.89,72.8,72.8,0,0,0-10.53-16.77q-6.51-7.8-13.78-15.34t-13.78-15.47a76.44,76.44,0,0,1-10.66-17.16,49.63,49.63,0,0,1-4.16-20.67q0-13,5.59-22.62a50.47,50.47,0,0,1,14.56-16,67.18,67.18,0,0,1,19.89-9.62,75.24,75.24,0,0,1,21.58-3.25q14,0,23.14,3.38a66.29,66.29,0,0,1,15.6,8.06q2.85,1.81,5.07,3a8.17,8.17,0,0,0,3.51,1.17q3.63,0,8.58-13.78Z"/><path class="cls-1" d="M571,370.48q-2.34,9.36-2.08,14a6.49,6.49,0,0,0,4.42,6.24q4.15,1.56,13,2.08l-1,5.2q-6.76-.53-17.42-.65T546,397.26q-11.7,0-21.71.13t-16.51.65l1.3-5.2a56.06,56.06,0,0,0,13.39-2.08,13.84,13.84,0,0,0,7.67-6.24q2.86-4.68,5.2-14l34.32-129q2.6-9.61,2.08-14.17a7.17,7.17,0,0,0-4.55-6.24q-4-1.7-12.87-2l1.3-5.2q6,.25,16.25.52t22,.26q11.17,0,21.58-.26t17.94-.52l-1.3,5.2q-8.84.26-13.78,2a14,14,0,0,0-7.67,6.24q-2.73,4.54-5.33,14.17Z"/><path class="cls-1" d="M700.43,396.48a42.93,42.93,0,0,0,13.13-2,48.13,48.13,0,0,0,10-4.29,19.39,19.39,0,0,0,7.15-7.41,57.81,57.81,0,0,0,4-10.79l6-22.88q2.87-10.67,2.21-15.86a8.07,8.07,0,0,0-5.72-7q-5.07-1.81-16-2.08l1.3-5.2q5.21.25,12.35.39l15,.26q7.8.14,14.3.13,10.39,0,19.11-.26t14.43-.52l-1.3,5.2a23.78,23.78,0,0,0-9,1.82q-3.25,1.56-5.46,6.24a92.32,92.32,0,0,0-4.81,14.3L763.35,398h-5.2a25.25,25.25,0,0,0-.52-10.4q-1.3-4.42-5.46-4.42a18.06,18.06,0,0,0-8.06,2.08l-9.88,4.94a91.36,91.36,0,0,1-19.37,8.58,70.31,70.31,0,0,1-20.41,2.86q-33.29,0-51.35-15.6T625,342.14A124.22,124.22,0,0,1,630.62,306a149.32,149.32,0,0,1,16.25-35.62,144.62,144.62,0,0,1,25.48-30.68,117.36,117.36,0,0,1,33.54-21.45,102.17,102.17,0,0,1,40.3-7.93q16.9,0,26.13,4.94a73.72,73.72,0,0,1,16.51,12q3.9,3.9,7.28,1.3T803.65,214h5.72q-3.9,10.14-8.06,24.57t-8.58,35.23H787c.35-3.47.65-6.8.91-10s.39-6.37.39-9.49a59.47,59.47,0,0,0-.78-10,34.78,34.78,0,0,0-2.86-9,35.57,35.57,0,0,0-15.73-14.95Q758.41,215,744.63,215a51.31,51.31,0,0,0-29.77,9.23,89.32,89.32,0,0,0-23.53,24.44A162.26,162.26,0,0,0,674.43,282a225.78,225.78,0,0,0-10.27,36.14,172.7,172.7,0,0,0-3.51,32.63q0,23.4,9.88,34.58T700.43,396.48Z"/><path class="cls-1" d="M806.25,412.34a22.73,22.73,0,0,0,12.61-4,37.7,37.7,0,0,0,9.49-10q7.54-12,15.21-37.44t15.6-61.62q7.94-36.14,16-79.3l4.42,5.46q-4.17,21.32-8.71,43.29t-9.23,42.9Q857,332.52,852,350.46t-9.88,31.07q-4.95,13.14-9.62,19.37a61.83,61.83,0,0,1-11,11.31q-6.37,5.07-16.77,5.07-11.18,0-16.38-5.59a19.3,19.3,0,0,1-5.2-13.65,23,23,0,0,1,5.72-15.47,18.94,18.94,0,0,1,15.08-6.63q7.8,0,11.44,4.16A14.51,14.51,0,0,1,819,390a20.34,20.34,0,0,1-4.55,13,26.55,26.55,0,0,1-11.05,8.32,3.21,3.21,0,0,0,1.3.78A5,5,0,0,0,806.25,412.34Zm131.3-13-64.22-153.4c-.52-.86-1-1.6-1.3-2.21a16.54,16.54,0,0,1-1-2.21q2.09-9.61,1.43-14.17a7.44,7.44,0,0,0-5.2-6.24q-4.54-1.7-14.69-2l1.3-5.2c2.77.17,6.2.35,10.27.52s8.36.26,12.87.26q12.22,0,21.06-.78l53,133.12q-1,7.55-2,13.39t-2,12.74q-1,6.89-1.95,12.74t-2,13.39Zm79.56-192.4a22.32,22.32,0,0,0-12.35,4,35.49,35.49,0,0,0-9.23,9.75q-12,17.68-24.44,62.14T943.27,399.34l-3.64-7.28q3.9-17.42,8.32-37.57t9.49-40.43q5.07-20.28,10.4-38.74T979,242.17q5.85-14.68,11.83-23.53a48.89,48.89,0,0,1,11.7-11.83,27.51,27.51,0,0,1,16.38-4.81q10.92,0,16.12,5.59a19,19,0,0,1,5.2,13.39,23.31,23.31,0,0,1-5.72,15.73,19,19,0,0,1-15.08,6.63q-7.55,0-11.31-4.16a14.19,14.19,0,0,1-3.77-9.88,20.28,20.28,0,0,1,4.55-13,26.22,26.22,0,0,1,11.31-8.32,8.31,8.31,0,0,0-1.43-.78A4.69,4.69,0,0,0,1017.11,206.94Z"/></g></g></svg>